<svg xmlns="http://www.w3.org/2000/svg" xmlns:xlink="http://www.w3.org/1999/xlink" width="1400" height="385.65"><rect width="1400" height="385.65" rx="5" ry="5" class="a"/><svg y="0%" x="0%"><circle cx="20" cy="20" r="6" fill="#ff5f58"/><circle cx="40" cy="20" r="6" fill="#ffbd2e"/><circle cx="60" cy="20" r="6" fill="#18c132"/></svg><svg height="325.65" viewBox="0 0 136 32.565" width="1360" x="15" xmlns="http://www.w3.org/2000/svg" xmlns:xlink="http://www.w3.org/1999/xlink" y="50"><style>@keyframes l{0%{transform:translateX(0)}.7%{transform:translateX(-136px)}8%{transform:translateX(-272px)}9.3%{transform:translateX(-408px)}10.5%{transform:translateX(-544px)}11.7%{transform:translateX(-680px)}13%{transform:translateX(-816px)}13.1%{transform:translateX(-952px)}14.2%{transform:translateX(-1088px)}15.5%{transform:translateX(-1224px)}16.3%{transform:translateX(-1360px)}18%{transform:translateX(-1496px)}19%{transform:translateX(-1632px)}19.6%{transform:translateX(-1768px)}21%{transform:translateX(-1904px)}21.5%{transform:translateX(-2040px)}22.2%{transform:translateX(-2176px)}22.9%{transform:translateX(-2312px)}23.4%{transform:translateX(-2448px)}27.1%{transform:translateX(-2584px)}33%{transform:translateX(-2720px)}34.9%{transform:translateX(-2856px)}37.3%{transform:translateX(-2992px)}38.1%{transform:translateX(-3128px)}39.6%{transform:translateX(-3264px)}40.7%{transform:translateX(-3400px)}41.2%{transform:translateX(-3536px)}42.7%{transform:translateX(-3672px)}43.8%{transform:translateX(-3808px)}44.2%{transform:translateX(-3944px)}45.5%{transform:translateX(-4080px)}46.4%{transform:translateX(-4216px)}46.9%{transform:translateX(-4352px)}47.5%{transform:translateX(-4488px)}48.7%{transform:translateX(-4624px)}49.8%{transform:translateX(-4760px)}50.1%{transform:translateX(-4896px)}50.9%{transform:translateX(-5168px)}51.8%{transform:translateX(-5576px)}53.1%{transform:translateX(-5984px)}59.5%{transform:translateX(-6664px)}59.6%{transform:translateX(-7480px)}60.1%{transform:translateX(-7888px)}60.5%{transform:translateX(-8704px)}67.3%{transform:translateX(-9520px)}72.6%{transform:translateX(-10200px)}73.1%{transform:translateX(-10336px)}73.6%{transform:translateX(-10744px)}77%{transform:translateX(-11832px)}80.4%{transform:translateX(-12512px)}80.9%{transform:translateX(-12648px)}81.4%{transform:translateX(-13056px)}85.3%{transform:translateX(-13872px)}90.7%{transform:translateX(-14552px)}91.2%{transform:translateX(-14688px)}91.6%{transform:translateX(-15096px)}to{transform:translateX(-15912px)}}.a{fill:#282d35}.f,.g{white-space:pre}.f{fill:#a8cc8c;font-weight:700}.g{fill:#b9c0cb}.h{fill:#a8cc8c}.h,.i,.j{white-space:pre}.i{fill:#b9c0cb;font-weight:700}.j{fill:#66c2cd}</style><g font-family="Monaco,Consolas,Menlo,'Bitstream Vera Sans Mono','Powerline Symbols',monospace" font-size="1.67"><defs><symbol id="1"><text y="1.67" class="f">[mloeper@nesto-office-mloeper:~]$</text><text x="34.068" y="1.67" class="g">s3select</text></symbol><symbol id="2"><text y="1.67" class="f">[mloeper@nesto-office-mloeper:~]$</text><text x="34.068" y="1.67" class="g">s3select</text><text x="43.086" y="1.67" class="g">--bucket</text></symbol><symbol id="3"><text y="1.67" class="f">[mloeper@nesto-office-mloeper:~]$</text><text x="34.068" y="1.67" class="g">s3select</text><text x="43.086" y="1.67" class="g">--bucket</text><text x="52.104" y="1.67" class="g">s3-browser-sample</text></symbol><symbol id="4"><text y="1.67" class="h">?</text><text x="2.004" y="1.67" class="i">Which</text><text x="8.016" y="1.67" class="i">S3</text><text x="11.022" y="1.67" class="i">object</text><text x="18.036" y="1.67" class="i">would</text><text x="24.048" y="1.67" class="i">you</text><text x="28.056" y="1.67" class="i">like</text><text x="33.066" y="1.67" class="i">to</text><text x="36.072" y="1.67" class="i">select?</text><text x="44.088" y="1.67" class="g">(Use</text><text x="49.098" y="1.67" class="g">arrow</text><text x="55.11" y="1.67" class="g">keys)</text></symbol><symbol id="5"><text y="1.67" class="h">?</text><text x="2.004" y="1.67" class="i">Which</text><text x="8.016" y="1.67" class="i">S3</text><text x="11.022" y="1.67" class="i">object</text><text x="18.036" y="1.67" class="i">would</text><text x="24.048" y="1.67" class="i">you</text><text x="28.056" y="1.67" class="i">like</text><text x="33.066" y="1.67" class="i">to</text><text x="36.072" y="1.67" class="i">select?</text></symbol><symbol id="6"><text x="1.002" y="1.67" class="i">Current</text><text x="9.018" y="1.67" class="i">directory:</text><text x="20.04" y="1.67" class="g">s3-browser-sample/</text></symbol><symbol id="7"><text y="1.67" class="j">❯</text><text x="2.004" y="1.67" class="j">folder1/</text></symbol><symbol id="8"><text x="2.004" y="1.67" class="g">folder2/</text></symbol><symbol id="9"><text x="2.004" y="1.67" class="g">──────────────</text></symbol><symbol id="10"><text x="2.004" y="1.67" class="g">Up</text><text x="5.01" y="1.67" class="g">a</text><text x="7.014" y="1.67" class="g">Level</text></symbol><symbol id="11"><text x="1.002" y="1.67" class="i">Current</text><text x="9.018" y="1.67" class="i">directory:</text><text x="20.04" y="1.67" class="g">s3-browser-sample/</text><text x="38.076" y="1.67" class="j">folder1/</text></symbol><symbol id="12"><text x="2.004" y="1.67" class="g">──────────────</text><text x="16.032" y="1.67" class="j">⠋</text><text x="18.036" y="1.67" class="g">Loading</text><text x="26.052" y="1.67" class="g">...</text></symbol><symbol id="13"><text y="1.67" class="j">⠙</text><text x="2.004" y="1.67" class="g">Loading</text><text x="10.02" y="1.67" class="g">...</text></symbol><symbol id="14"><text y="1.67" class="j">❯</text><text x="2.004" y="1.67" class="j">folder1/sample.txt</text></symbol><symbol id="15"><text x="2.004" y="1.67" class="g">folder1/sample.txt</text></symbol><symbol id="16"><text y="1.67" class="j">❯</text><text x="2.004" y="1.67" class="j">Up</text><text x="5.01" y="1.67" class="j">a</text><text x="7.014" y="1.67" class="j">Level</text></symbol><symbol id="17"><text x="2.004" y="1.67" class="g">folder1/</text></symbol><symbol id="18"><text y="1.67" class="j">❯</text><text x="2.004" y="1.67" class="j">folder2/</text></symbol><symbol id="19"><text x="1.002" y="1.67" class="i">Current</text><text x="9.018" y="1.67" class="i">directory:</text><text x="20.04" y="1.67" class="g">s3-browser-sample/</text><text x="38.076" y="1.67" class="j">folder2/</text></symbol><symbol id="20"><text y="1.67" class="j">❯</text><text x="2.004" y="1.67" class="j">folder2/another-folder/</text></symbol><symbol id="21"><text x="2.004" y="1.67" class="g">folder2/sample-folder/</text></symbol><symbol id="22"><text x="2.004" y="1.67" class="g">folder2/another-folder/</text></symbol><symbol id="23"><text y="1.67" class="j">❯</text><text x="2.004" y="1.67" class="j">folder2/sample-folder/</text></symbol><symbol id="24"><text x="1.002" y="1.67" class="i">Current</text><text x="9.018" y="1.67" class="i">directory:</text><text x="20.04" y="1.67" class="g">s3-browser-sample/</text><text x="38.076" y="1.67" class="j">folder2/sample-folder/</text></symbol><symbol id="25"><text y="1.67" class="j">❯</text><text x="2.004" y="1.67" class="j">folder2/sample-folder/sample.txt</text></symbol><symbol id="26"><text y="1.67" class="h">?</text><text x="2.004" y="1.67" class="i">Which</text><text x="8.016" y="1.67" class="i">S3</text><text x="11.022" y="1.67" class="i">object</text><text x="18.036" y="1.67" class="i">would</text><text x="24.048" y="1.67" class="i">you</text><text x="28.056" y="1.67" class="i">like</text><text x="33.066" y="1.67" class="i">to</text><text x="36.072" y="1.67" class="i">select?</text><text x="44.088" y="1.67" class="j">folder2/sample-folder/sample.txt</text></symbol><symbol id="27"><text y="1.67" class="g">{&quot;bucket&quot;:&quot;s3-browser-sample&quot;,&quot;prefix&quot;:&quot;folder2/sample-folder/sample.txt&quot;,&quot;objectUrl&quot;:&quot;https://s3.amazonaws.com/s3-browser-sample/folder</text></symbol><symbol id="28"><text y="1.67" class="g">2/sample-folder/sample.txt&quot;,&quot;s3Uri&quot;:&quot;s3://s3-browser-sample/folder2/sample-folder/sample.txt&quot;}</text></symbol><symbol id="a"><path fill="transparent" d="M0 0h136v15H0z"/></symbol></defs><path class="a" d="M0 0h136v32.565H0z"/><g style="animation-duration:14.996663s;animation-iteration-count:infinite;animation-name:l;animation-timing-function:steps(1,end)"><svg width="16048"><svg><use xlink:href="#a"/></svg><svg x="136"><use xlink:href="#a"/><text y="3.841" class="f">[mloeper@nesto-office-mloeper:~]$</text></svg><svg x="272"><use xlink:href="#a"/><text y="3.841" class="f">[mloeper@nesto-office-mloeper:~]$</text><text x="34.068" y="3.841" class="g">s</text></svg><svg x="408"><use xlink:href="#a"/><text y="3.841" class="f">[mloeper@nesto-office-mloeper:~]$</text><text x="34.068" y="3.841" class="g">s3</text></svg><svg x="544"><use xlink:href="#a"/><text y="3.841" class="f">[mloeper@nesto-office-mloeper:~]$</text><text x="34.068" y="3.841" class="g">s3s</text></svg><svg x="680"><use xlink:href="#a"/><text y="3.841" class="f">[mloeper@nesto-office-mloeper:~]$</text><text x="34.068" y="3.841" class="g">s3se</text></svg><svg x="816"><use xlink:href="#a"/><text y="3.841" class="f">[mloeper@nesto-office-mloeper:~]$</text><text x="34.068" y="3.841" class="g">s3sel</text></svg><svg x="952"><use xlink:href="#a"/><text y="3.841" class="f">[mloeper@nesto-office-mloeper:~]$</text><text x="34.068" y="3.841" class="g">s3sele</text></svg><svg x="1088"><use xlink:href="#a"/><text y="3.841" class="f">[mloeper@nesto-office-mloeper:~]$</text><text x="34.068" y="3.841" class="g">s3selec</text></svg><svg x="1224"><use xlink:href="#a"/><use xlink:href="#1" y="2.171"/></svg><svg x="1360"><use xlink:href="#a"/><use xlink:href="#1" y="2.171"/></svg><svg x="1496"><use xlink:href="#a"/><text y="3.841" class="f">[mloeper@nesto-office-mloeper:~]$</text><text x="34.068" y="3.841" class="g">s3select</text><text x="43.086" y="3.841" class="g">-</text></svg><svg x="1632"><use xlink:href="#a"/><text y="3.841" class="f">[mloeper@nesto-office-mloeper:~]$</text><text x="34.068" y="3.841" class="g">s3select</text><text x="43.086" y="3.841" class="g">--</text></svg><svg x="1768"><use xlink:href="#a"/><text y="3.841" class="f">[mloeper@nesto-office-mloeper:~]$</text><text x="34.068" y="3.841" class="g">s3select</text><text x="43.086" y="3.841" class="g">--b</text></svg><svg x="1904"><use xlink:href="#a"/><text y="3.841" class="f">[mloeper@nesto-office-mloeper:~]$</text><text x="34.068" y="3.841" class="g">s3select</text><text x="43.086" y="3.841" class="g">--bu</text></svg><svg x="2040"><use xlink:href="#a"/><text y="3.841" class="f">[mloeper@nesto-office-mloeper:~]$</text><text x="34.068" y="3.841" class="g">s3select</text><text x="43.086" y="3.841" class="g">--buc</text></svg><svg x="2176"><use xlink:href="#a"/><text y="3.841" class="f">[mloeper@nesto-office-mloeper:~]$</text><text x="34.068" y="3.841" class="g">s3select</text><text x="43.086" y="3.841" class="g">--buck</text></svg><svg x="2312"><use xlink:href="#a"/><text y="3.841" class="f">[mloeper@nesto-office-mloeper:~]$</text><text x="34.068" y="3.841" class="g">s3select</text><text x="43.086" y="3.841" class="g">--bucke</text></svg><svg x="2448"><use xlink:href="#a"/><use xlink:href="#2" y="2.171"/></svg><svg x="2584"><use xlink:href="#a"/><use xlink:href="#2" y="2.171"/></svg><svg x="2720"><use xlink:href="#a"/><text y="3.841" class="f">[mloeper@nesto-office-mloeper:~]$</text><text x="34.068" y="3.841" class="g">s3select</text><text x="43.086" y="3.841" class="g">--bucket</text><text x="52.104" y="3.841" class="g">s</text></svg><svg x="2856"><use xlink:href="#a"/><text y="3.841" class="f">[mloeper@nesto-office-mloeper:~]$</text><text x="34.068" y="3.841" class="g">s3select</text><text x="43.086" y="3.841" class="g">--bucket</text><text x="52.104" y="3.841" class="g">s3</text></svg><svg x="2992"><use xlink:href="#a"/><text y="3.841" class="f">[mloeper@nesto-office-mloeper:~]$</text><text x="34.068" y="3.841" class="g">s3select</text><text x="43.086" y="3.841" class="g">--bucket</text><text x="52.104" y="3.841" class="g">s3-</text></svg><svg x="3128"><use xlink:href="#a"/><text y="3.841" class="f">[mloeper@nesto-office-mloeper:~]$</text><text x="34.068" y="3.841" class="g">s3select</text><text x="43.086" y="3.841" class="g">--bucket</text><text x="52.104" y="3.841" class="g">s3-b</text></svg><svg x="3264"><use xlink:href="#a"/><text y="3.841" class="f">[mloeper@nesto-office-mloeper:~]$</text><text x="34.068" y="3.841" class="g">s3select</text><text x="43.086" y="3.841" class="g">--bucket</text><text x="52.104" y="3.841" class="g">s3-br</text></svg><svg x="3400"><use xlink:href="#a"/><text y="3.841" class="f">[mloeper@nesto-office-mloeper:~]$</text><text x="34.068" y="3.841" class="g">s3select</text><text x="43.086" y="3.841" class="g">--bucket</text><text x="52.104" y="3.841" class="g">s3-bro</text></svg><svg x="3536"><use xlink:href="#a"/><text y="3.841" class="f">[mloeper@nesto-office-mloeper:~]$</text><text x="34.068" y="3.841" class="g">s3select</text><text x="43.086" y="3.841" class="g">--bucket</text><text x="52.104" y="3.841" class="g">s3-brow</text></svg><svg x="3672"><use xlink:href="#a"/><text y="3.841" class="f">[mloeper@nesto-office-mloeper:~]$</text><text x="34.068" y="3.841" class="g">s3select</text><text x="43.086" y="3.841" class="g">--bucket</text><text x="52.104" y="3.841" class="g">s3-brows</text></svg><svg x="3808"><use xlink:href="#a"/><text y="3.841" class="f">[mloeper@nesto-office-mloeper:~]$</text><text x="34.068" y="3.841" class="g">s3select</text><text x="43.086" y="3.841" class="g">--bucket</text><text x="52.104" y="3.841" class="g">s3-browse</text></svg><svg x="3944"><use xlink:href="#a"/><text y="3.841" class="f">[mloeper@nesto-office-mloeper:~]$</text><text x="34.068" y="3.841" class="g">s3select</text><text x="43.086" y="3.841" class="g">--bucket</text><text x="52.104" y="3.841" class="g">s3-browser</text></svg><svg x="4080"><use xlink:href="#a"/><text y="3.841" class="f">[mloeper@nesto-office-mloeper:~]$</text><text x="34.068" y="3.841" class="g">s3select</text><text x="43.086" y="3.841" class="g">--bucket</text><text x="52.104" y="3.841" class="g">s3-browser-</text></svg><svg x="4216"><use xlink:href="#a"/><text y="3.841" class="f">[mloeper@nesto-office-mloeper:~]$</text><text x="34.068" y="3.841" class="g">s3select</text><text x="43.086" y="3.841" class="g">--bucket</text><text x="52.104" y="3.841" class="g">s3-browser-s</text></svg><svg x="4352"><use xlink:href="#a"/><text y="3.841" class="f">[mloeper@nesto-office-mloeper:~]$</text><text x="34.068" y="3.841" class="g">s3select</text><text x="43.086" y="3.841" class="g">--bucket</text><text x="52.104" y="3.841" class="g">s3-browser-sa</text></svg><svg x="4488"><use xlink:href="#a"/><text y="3.841" class="f">[mloeper@nesto-office-mloeper:~]$</text><text x="34.068" y="3.841" class="g">s3select</text><text x="43.086" y="3.841" class="g">--bucket</text><text x="52.104" y="3.841" class="g">s3-browser-sam</text></svg><svg x="4624"><use xlink:href="#a"/><text y="3.841" class="f">[mloeper@nesto-office-mloeper:~]$</text><text x="34.068" y="3.841" class="g">s3select</text><text x="43.086" y="3.841" class="g">--bucket</text><text x="52.104" y="3.841" class="g">s3-browser-samp</text></svg><svg x="4760"><use xlink:href="#a"/><text y="3.841" class="f">[mloeper@nesto-office-mloeper:~]$</text><text x="34.068" y="3.841" class="g">s3select</text><text x="43.086" y="3.841" class="g">--bucket</text><text x="52.104" y="3.841" class="g">s3-browser-sampl</text></svg><svg x="4896"><use xlink:href="#a"/><use xlink:href="#3" y="2.171"/></svg><svg x="5032"><use xlink:href="#a"/><use xlink:href="#3" y="2.171"/></svg><svg x="5168"><use xlink:href="#a"/><use xlink:href="#3" y="2.171"/></svg><svg x="5304"><use xlink:href="#a"/><use xlink:href="#3" y="2.171"/><use xlink:href="#4" y="4.342"/></svg><svg x="5440"><use xlink:href="#a"/><use xlink:href="#3" y="2.171"/><use xlink:href="#4" y="4.342"/></svg><svg x="5576"><use xlink:href="#a"/><use xlink:href="#3" y="2.171"/><use xlink:href="#4" y="4.342"/></svg><svg x="5712"><use xlink:href="#a"/><use xlink:href="#3" y="2.171"/><use xlink:href="#4" y="4.342"/></svg><svg x="5848"><use xlink:href="#a"/><use xlink:href="#3" y="2.171"/><use xlink:href="#5" y="4.342"/><use xlink:href="#6" y="6.513"/><use xlink:href="#7" y="8.684"/><use xlink:href="#8" y="10.855"/><use xlink:href="#9" y="13.026"/><use xlink:href="#10" y="15.197"/><use xlink:href="#9" y="17.368"/></svg><svg x="5984"><use xlink:href="#a"/><use xlink:href="#3" y="2.171"/><use xlink:href="#5" y="4.342"/><use xlink:href="#6" y="6.513"/><use xlink:href="#7" y="8.684"/><use xlink:href="#8" y="10.855"/><use xlink:href="#9" y="13.026"/><use xlink:href="#10" y="15.197"/><use xlink:href="#9" y="17.368"/></svg><svg x="6120"><use xlink:href="#a"/><use xlink:href="#3" y="2.171"/><use xlink:href="#5" y="4.342"/><use xlink:href="#6" y="6.513"/><use xlink:href="#7" y="8.684"/><use xlink:href="#8" y="10.855"/><use xlink:href="#9" y="13.026"/><use xlink:href="#10" y="15.197"/><use xlink:href="#9" y="17.368"/></svg><svg x="6256"><use xlink:href="#a"/><use xlink:href="#3" y="2.171"/></svg><svg x="6392"><use xlink:href="#a"/><use xlink:href="#3" y="2.171"/><use xlink:href="#5" y="4.342"/><use xlink:href="#11" y="6.513"/><use xlink:href="#7" y="8.684"/><use xlink:href="#8" y="10.855"/><use xlink:href="#9" y="13.026"/><use xlink:href="#10" y="15.197"/><use xlink:href="#9" y="17.368"/></svg><svg x="6528"><use xlink:href="#a"/><use xlink:href="#3" y="2.171"/><use xlink:href="#5" y="4.342"/><use xlink:href="#11" y="6.513"/><use xlink:href="#7" y="8.684"/><use xlink:href="#8" y="10.855"/><use xlink:href="#9" y="13.026"/><use xlink:href="#10" y="15.197"/><use xlink:href="#9" y="17.368"/></svg><svg x="6664"><use xlink:href="#a"/><use xlink:href="#3" y="2.171"/><use xlink:href="#5" y="4.342"/><use xlink:href="#11" y="6.513"/><use xlink:href="#7" y="8.684"/><use xlink:href="#8" y="10.855"/><use xlink:href="#9" y="13.026"/><use xlink:href="#10" y="15.197"/><use xlink:href="#9" y="17.368"/></svg><svg x="6800"><use xlink:href="#a"/><use xlink:href="#3" y="2.171"/><use xlink:href="#5" y="4.342"/><use xlink:href="#11" y="6.513"/><use xlink:href="#7" y="8.684"/><use xlink:href="#8" y="10.855"/><use xlink:href="#9" y="13.026"/><use xlink:href="#10" y="15.197"/><use xlink:href="#9" y="17.368"/></svg><svg x="6936"><use xlink:href="#a"/><use xlink:href="#3" y="2.171"/><use xlink:href="#5" y="4.342"/><use xlink:href="#11" y="6.513"/><use xlink:href="#7" y="8.684"/><use xlink:href="#8" y="10.855"/><use xlink:href="#9" y="13.026"/><use xlink:href="#10" y="15.197"/><use xlink:href="#9" y="17.368"/></svg><svg x="7072"><use xlink:href="#a"/><use xlink:href="#3" y="2.171"/><use xlink:href="#5" y="4.342"/><use xlink:href="#11" y="6.513"/><use xlink:href="#7" y="8.684"/><use xlink:href="#8" y="10.855"/><use xlink:href="#9" y="13.026"/><use xlink:href="#10" y="15.197"/><use xlink:href="#12" y="17.368"/></svg><svg x="7208"><use xlink:href="#a"/><use xlink:href="#3" y="2.171"/></svg><svg x="7344"><use xlink:href="#a"/><use xlink:href="#3" y="2.171"/><use xlink:href="#5" y="4.342"/></svg><svg x="7480"><use xlink:href="#a"/><use xlink:href="#3" y="2.171"/><use xlink:href="#5" y="4.342"/></svg><svg x="7616"><use xlink:href="#a"/><use xlink:href="#3" y="2.171"/></svg><svg x="7752"><use xlink:href="#a"/><use xlink:href="#3" y="2.171"/></svg><svg x="7888"><use xlink:href="#a"/><use xlink:href="#3" y="2.171"/><use xlink:href="#13" y="4.342"/></svg><svg x="8024"><use xlink:href="#a"/><use xlink:href="#3" y="2.171"/></svg><svg x="8160"><use xlink:href="#a"/><use xlink:href="#3" y="2.171"/></svg><svg x="8296"><use xlink:href="#a"/><use xlink:href="#3" y="2.171"/></svg><svg x="8432"><use xlink:href="#a"/><use xlink:href="#3" y="2.171"/><use xlink:href="#5" y="4.342"/><use xlink:href="#11" y="6.513"/><use xlink:href="#14" y="8.684"/><use xlink:href="#9" y="10.855"/><use xlink:href="#10" y="13.026"/><use xlink:href="#9" y="15.197"/></svg><svg x="8568"><use xlink:href="#a"/><use xlink:href="#3" y="2.171"/><use xlink:href="#5" y="4.342"/><use xlink:href="#11" y="6.513"/><use xlink:href="#14" y="8.684"/><use xlink:href="#9" y="10.855"/><use xlink:href="#10" y="13.026"/><use xlink:href="#9" y="15.197"/></svg><svg x="8704"><use xlink:href="#a"/><use xlink:href="#3" y="2.171"/><use xlink:href="#5" y="4.342"/><use xlink:href="#11" y="6.513"/><use xlink:href="#14" y="8.684"/><use xlink:href="#9" y="10.855"/><use xlink:href="#10" y="13.026"/><use xlink:href="#9" y="15.197"/></svg><svg x="8840"><use xlink:href="#a"/><use xlink:href="#3" y="2.171"/><use xlink:href="#5" y="4.342"/><use xlink:href="#11" y="6.513"/><use xlink:href="#14" y="8.684"/><use xlink:href="#9" y="10.855"/><use xlink:href="#10" y="13.026"/><use xlink:href="#9" y="15.197"/></svg><svg x="8976"><use xlink:href="#a"/><use xlink:href="#3" y="2.171"/></svg><svg x="9112"><use xlink:href="#a"/><use xlink:href="#3" y="2.171"/><use xlink:href="#5" y="4.342"/><use xlink:href="#11" y="6.513"/><use xlink:href="#15" y="8.684"/><use xlink:href="#9" y="10.855"/><use xlink:href="#16" y="13.026"/><use xlink:href="#9" y="15.197"/></svg><svg x="9248"><use xlink:href="#a"/><use xlink:href="#3" y="2.171"/><use xlink:href="#5" y="4.342"/><use xlink:href="#11" y="6.513"/><use xlink:href="#15" y="8.684"/><use xlink:href="#9" y="10.855"/><use xlink:href="#16" y="13.026"/><use xlink:href="#9" y="15.197"/></svg><svg x="9384"><use xlink:href="#a"/><use xlink:href="#3" y="2.171"/></svg><svg x="9520"><use xlink:href="#a"/><use xlink:href="#3" y="2.171"/><use xlink:href="#5" y="4.342"/><use xlink:href="#11" y="6.513"/><use xlink:href="#15" y="8.684"/><use xlink:href="#9" y="10.855"/><use xlink:href="#16" y="13.026"/><use xlink:href="#9" y="15.197"/></svg><svg x="9656"><use xlink:href="#a"/><use xlink:href="#3" y="2.171"/><use xlink:href="#5" y="4.342"/><use xlink:href="#11" y="6.513"/><use xlink:href="#15" y="8.684"/><use xlink:href="#9" y="10.855"/><use xlink:href="#16" y="13.026"/><use xlink:href="#9" y="15.197"/></svg><svg x="9792"><use xlink:href="#a"/><use xlink:href="#3" y="2.171"/></svg><svg x="9928"><use xlink:href="#a"/><use xlink:href="#3" y="2.171"/><use xlink:href="#5" y="4.342"/><use xlink:href="#6" y="6.513"/><use xlink:href="#15" y="8.684"/><use xlink:href="#9" y="10.855"/><use xlink:href="#16" y="13.026"/><use xlink:href="#9" y="15.197"/></svg><svg x="10064"><use xlink:href="#a"/><use xlink:href="#3" y="2.171"/><use xlink:href="#5" y="4.342"/></svg><svg x="10200"><use xlink:href="#a"/><use xlink:href="#3" y="2.171"/><use xlink:href="#5" y="4.342"/></svg><svg x="10336"><use xlink:href="#a"/><use xlink:href="#3" y="2.171"/><use xlink:href="#13" y="4.342"/></svg><svg x="10472"><use xlink:href="#a"/><use xlink:href="#3" y="2.171"/></svg><svg x="10608"><use xlink:href="#a"/><use xlink:href="#3" y="2.171"/></svg><svg x="10744"><use xlink:href="#a"/><use xlink:href="#3" y="2.171"/><use xlink:href="#5" y="4.342"/><use xlink:href="#6" y="6.513"/><use xlink:href="#7" y="8.684"/><use xlink:href="#8" y="10.855"/><use xlink:href="#9" y="13.026"/><use xlink:href="#10" y="15.197"/><use xlink:href="#9" y="17.368"/></svg><svg x="10880"><use xlink:href="#a"/><use xlink:href="#3" y="2.171"/><use xlink:href="#5" y="4.342"/><use xlink:href="#6" y="6.513"/><use xlink:href="#7" y="8.684"/><use xlink:href="#8" y="10.855"/><use xlink:href="#9" y="13.026"/><use xlink:href="#10" y="15.197"/><use xlink:href="#9" y="17.368"/></svg><svg x="11016"><use xlink:href="#a"/><use xlink:href="#3" y="2.171"/></svg><svg x="11152"><use xlink:href="#a"/><use xlink:href="#3" y="2.171"/><use xlink:href="#5" y="4.342"/><use xlink:href="#6" y="6.513"/><use xlink:href="#17" y="8.684"/><use xlink:href="#18" y="10.855"/><use xlink:href="#9" y="13.026"/><use xlink:href="#10" y="15.197"/><use xlink:href="#9" y="17.368"/></svg><svg x="11288"><use xlink:href="#a"/><use xlink:href="#3" y="2.171"/><use xlink:href="#5" y="4.342"/><use xlink:href="#6" y="6.513"/><use xlink:href="#17" y="8.684"/><use xlink:href="#18" y="10.855"/><use xlink:href="#9" y="13.026"/><use xlink:href="#10" y="15.197"/><use xlink:href="#9" y="17.368"/></svg><svg x="11424"><use xlink:href="#a"/><use xlink:href="#3" y="2.171"/><use xlink:href="#5" y="4.342"/><use xlink:href="#6" y="6.513"/><use xlink:href="#17" y="8.684"/><use xlink:href="#18" y="10.855"/><use xlink:href="#9" y="13.026"/><use xlink:href="#10" y="15.197"/><use xlink:href="#9" y="17.368"/></svg><svg x="11560"><use xlink:href="#a"/><use xlink:href="#3" y="2.171"/></svg><svg x="11696"><use xlink:href="#a"/><use xlink:href="#3" y="2.171"/><use xlink:href="#5" y="4.342"/><use xlink:href="#6" y="6.513"/><use xlink:href="#17" y="8.684"/><use xlink:href="#18" y="10.855"/><use xlink:href="#9" y="13.026"/><use xlink:href="#10" y="15.197"/><use xlink:href="#9" y="17.368"/></svg><svg x="11832"><use xlink:href="#a"/><use xlink:href="#3" y="2.171"/><use xlink:href="#5" y="4.342"/><use xlink:href="#6" y="6.513"/><use xlink:href="#17" y="8.684"/><use xlink:href="#18" y="10.855"/><use xlink:href="#9" y="13.026"/><use xlink:href="#10" y="15.197"/><use xlink:href="#9" y="17.368"/></svg><svg x="11968"><use xlink:href="#a"/><use xlink:href="#3" y="2.171"/><use xlink:href="#5" y="4.342"/><use xlink:href="#6" y="6.513"/><use xlink:href="#17" y="8.684"/><use xlink:href="#18" y="10.855"/><use xlink:href="#9" y="13.026"/><use xlink:href="#10" y="15.197"/><use xlink:href="#9" y="17.368"/></svg><svg x="12104"><use xlink:href="#a"/><use xlink:href="#3" y="2.171"/></svg><svg x="12240"><use xlink:href="#a"/><use xlink:href="#3" y="2.171"/><use xlink:href="#5" y="4.342"/><use xlink:href="#19" y="6.513"/><use xlink:href="#17" y="8.684"/><use xlink:href="#18" y="10.855"/><use xlink:href="#9" y="13.026"/><use xlink:href="#10" y="15.197"/><use xlink:href="#9" y="17.368"/></svg><svg x="12376"><use xlink:href="#a"/><use xlink:href="#3" y="2.171"/></svg><svg x="12512"><use xlink:href="#a"/><use xlink:href="#3" y="2.171"/><use xlink:href="#5" y="4.342"/></svg><svg x="12648"><use xlink:href="#a"/><use xlink:href="#3" y="2.171"/><use xlink:href="#13" y="4.342"/></svg><svg x="12784"><use xlink:href="#a"/><use xlink:href="#3" y="2.171"/></svg><svg x="12920"><use xlink:href="#a"/><use xlink:href="#3" y="2.171"/></svg><svg x="13056"><use xlink:href="#a"/><use xlink:href="#3" y="2.171"/><use xlink:href="#5" y="4.342"/><use xlink:href="#19" y="6.513"/><use xlink:href="#20" y="8.684"/><use xlink:href="#21" y="10.855"/><use xlink:href="#9" y="13.026"/><use xlink:href="#10" y="15.197"/><use xlink:href="#9" y="17.368"/></svg><svg x="13192"><use xlink:href="#a"/><use xlink:href="#3" y="2.171"/><use xlink:href="#5" y="4.342"/><use xlink:href="#19" y="6.513"/><use xlink:href="#20" y="8.684"/><use xlink:href="#21" y="10.855"/><use xlink:href="#9" y="13.026"/><use xlink:href="#10" y="15.197"/><use xlink:href="#9" y="17.368"/></svg><svg x="13328"><use xlink:href="#a"/><use xlink:href="#3" y="2.171"/></svg><svg x="13464"><use xlink:href="#a"/><use xlink:href="#3" y="2.171"/><use xlink:href="#5" y="4.342"/><use xlink:href="#19" y="6.513"/><use xlink:href="#22" y="8.684"/><use xlink:href="#23" y="10.855"/><use xlink:href="#9" y="13.026"/><use xlink:href="#10" y="15.197"/><use xlink:href="#9" y="17.368"/></svg><svg x="13600"><use xlink:href="#a"/><use xlink:href="#3" y="2.171"/><use xlink:href="#5" y="4.342"/><use xlink:href="#19" y="6.513"/><use xlink:href="#22" y="8.684"/><use xlink:href="#23" y="10.855"/><use xlink:href="#9" y="13.026"/><use xlink:href="#10" y="15.197"/><use xlink:href="#9" y="17.368"/></svg><svg x="13736"><use xlink:href="#a"/><use xlink:href="#3" y="2.171"/><use xlink:href="#5" y="4.342"/><use xlink:href="#19" y="6.513"/><use xlink:href="#22" y="8.684"/><use xlink:href="#23" y="10.855"/><use xlink:href="#9" y="13.026"/><use xlink:href="#10" y="15.197"/><use xlink:href="#9" y="17.368"/></svg><svg x="13872"><use xlink:href="#a"/><use xlink:href="#3" y="2.171"/><use xlink:href="#5" y="4.342"/><use xlink:href="#19" y="6.513"/><use xlink:href="#22" y="8.684"/><use xlink:href="#23" y="10.855"/><use xlink:href="#9" y="13.026"/><use xlink:href="#10" y="15.197"/><use xlink:href="#9" y="17.368"/></svg><svg x="14008"><use xlink:href="#a"/><use xlink:href="#3" y="2.171"/></svg><svg x="14144"><use xlink:href="#a"/><use xlink:href="#3" y="2.171"/><use xlink:href="#5" y="4.342"/><use xlink:href="#24" y="6.513"/><use xlink:href="#22" y="8.684"/><use xlink:href="#23" y="10.855"/><use xlink:href="#9" y="13.026"/><use xlink:href="#10" y="15.197"/><use xlink:href="#9" y="17.368"/></svg><svg x="14280"><use xlink:href="#a"/><use xlink:href="#3" y="2.171"/><use xlink:href="#5" y="4.342"/><use xlink:href="#24" y="6.513"/><use xlink:href="#22" y="8.684"/><use xlink:href="#23" y="10.855"/><use xlink:href="#9" y="13.026"/><use xlink:href="#10" y="15.197"/><use xlink:href="#12" y="17.368"/></svg><svg x="14416"><use xlink:href="#a"/><use xlink:href="#3" y="2.171"/><use xlink:href="#5" y="4.342"/></svg><svg x="14552"><use xlink:href="#a"/><use xlink:href="#3" y="2.171"/><use xlink:href="#5" y="4.342"/></svg><svg x="14688"><use xlink:href="#a"/><use xlink:href="#3" y="2.171"/><use xlink:href="#13" y="4.342"/></svg><svg x="14824"><use xlink:href="#a"/><use xlink:href="#3" y="2.171"/></svg><svg x="14960"><use xlink:href="#a"/><use xlink:href="#3" y="2.171"/><use xlink:href="#5" y="4.342"/><use xlink:href="#24" y="6.513"/><use xlink:href="#25" y="8.684"/><use xlink:href="#9" y="10.855"/><use xlink:href="#10" y="13.026"/><use xlink:href="#9" y="15.197"/></svg><svg x="15096"><use xlink:href="#a"/><use xlink:href="#3" y="2.171"/><use xlink:href="#5" y="4.342"/><use xlink:href="#24" y="6.513"/><use xlink:href="#25" y="8.684"/><use xlink:href="#9" y="10.855"/><use xlink:href="#10" y="13.026"/><use xlink:href="#9" y="15.197"/></svg><svg x="15232"><use xlink:href="#a"/><use xlink:href="#3" y="2.171"/></svg><svg x="15368"><use xlink:href="#a"/><use xlink:href="#3" y="2.171"/><use xlink:href="#26" y="4.342"/></svg><svg x="15504"><use xlink:href="#a"/><use xlink:href="#3" y="2.171"/><use xlink:href="#26" y="4.342"/></svg><svg x="15640"><use xlink:href="#a"/><use xlink:href="#3" y="2.171"/><use xlink:href="#26" y="4.342"/></svg><svg x="15776"><use xlink:href="#a"/><use xlink:href="#3" y="2.171"/><use xlink:href="#26" y="4.342"/><use xlink:href="#27" y="6.513"/><use xlink:href="#28" y="8.684"/></svg><svg x="15912"><use xlink:href="#a"/><use xlink:href="#3" y="2.171"/><use xlink:href="#26" y="4.342"/><use xlink:href="#27" y="6.513"/><use xlink:href="#28" y="8.684"/></svg></svg></g></g></svg></svg>